PathFileType	4	(X/Y/Z)	C:/Users/beibeiliu/ov580/test_trc/capture2\sequence.14_training_dense_right.trc
DataRate	CameraRate	NumFrames	NumMarkers	Units	OrigDataRate	OrigDataStartFrame	OrigNumFrames
120	120	14	19	mm	120	251	400
Frame#	Time	ThumbCMC			ThumbMCP			ThumbIP			ThumbTip			IndexMCP			IndexPIP			IndexTip			MiddleMCP			MiddlePIP			MiddleTip			RingMCP			RingPIP			RingTip			PinkyMCP			PinkyPIP			PinkyTip			BackHand1			BackHand2			BackHand3	
		X0	Y0	Z0	X1	Y1	Z1	X2	Y2	Z2	X3	Y3	Z3	X4	Y4	Z4	X5	Y5	Z5	X6	Y6	Z6	X7	Y7	Z7	X8	Y8	Z8	X9	Y9	Z9	X10	Y10	Z10	X11	Y11	Z11	X12	Y12	Z12	X13	Y13	Z13	X14	Y14	Z14	X15	Y15	Z15	X16	Y16	Z16	X17	Y17	Z17	X18	Y18	Z18	
250	2.08333	122.537	55.0007	-29.8436	119.697	46.3015	-61.7948	126.552	53.3981	-90.3183	147.648	60.9719	-104.488	136.5	112.651	-73.8479	140.993	122.564	-91.098	142.97	136.644	-110.138	160.601	93.1521	-85.4754	159.07	65.3196	-101.344	151.756	51.7814	-67.526	180.986	84.2717	-81.5396	174.442	57.1311	-96.2737	160.936	41.6283	-65.9341	201	89.2793	-65.0426	210.79	98.2781	-83.8609	220.541	110.096	-101.284	176.398	85.7316	-22.7075	173.524	70.8549	0.14734	144.512	84.6524	-16.4381	
251	2.09167	119.539	55.8563	-26.9938	120.92	49.8893	-58.1724	125.968	56.408	-85.0941	145.639	68.2794	-104.623	133.585	112.537	-66.5638	133.792	128.301	-89.8666	142.633	144.549	-109.943	155.693	98.8195	-82.3894	155.95	70.6575	-99.7296	148.362	53.9094	-69.2021	175.788	89.6234	-80.9766	173.663	61.6693	-95.3552	159.231	46.5336	-66.7381	200.499	94.3769	-62.0892	206.904	103.176	-81.9633	216.809	118.363	-97.5975	174.61	91.034	-22.5744	175.675	72.5798	1.41817	143.5	85.6878	-14.0337	
252	2.1	119.294	57.5962	-25.3883	117.249	56.5235	-59.4318	122.972	63.0811	-84.7754	140.62	71.3845	-99.2237	136.465	117.443	-63.4869	134.576	133.056	-86.2431	136.687	150.177	-105.882	155.003	102.847	-80.9554	156.568	77.9181	-99.5732	147.106	59.3764	-65.5408	173.65	94.1369	-78.6912	170.962	67.1678	-94.3853	157.796	49.9682	-65.6428	193.665	100.187	-61.2238	206	107.874	-78.3375	216.593	121.963	-94.5822	175.807	93.2721	-19.1488	175.057	75.2128	4.82357	144.053	88.083	-10.1657	
253	2.10833	117.073	63.0923	-24.6069	115.554	58.4144	-53.746	119.246	70.1344	-85.0687	135.229	80.046	-101.559	128.797	122.52	-61.0185	128.752	137.707	-81.8424	131.457	152.51	-98.6114	149.621	107.933	-78.1503	152.022	80.4007	-96.8451	143.639	62.4882	-65.2017	172.258	99.5504	-78.1445	166.43	74.7149	-92.2531	154.466	55.236	-65.4587	194.415	103.561	-58.8241	200.643	112.799	-75.0886	212.428	128.192	-91.6111	173.022	96.0124	-19.7759	169.064	79.9489	6.96692	141.876	91.2773	-6.9003	
254	2.11667	117.137	64.5536	-20.3268	114.369	63.5798	-52.9653	117.366	74.0481	-78.9171	135.815	85.1262	-94.9379	128.85	129.527	-59.7353	128.289	141.235	-77.5118	127.021	161.661	-98.2876	146.693	113.136	-74.6499	146.468	86.8758	-94.8204	141.51	68.1496	-61.6776	167.665	104.658	-75.8681	160.627	78.3379	-91.0074	150.788	60.6047	-62.2939	193.236	108.994	-56.5102	195.665	121.058	-76.9961	206.021	132.632	-91.4539	172.606	98.7904	-14.7139	166.533	83.9113	6.64643	137.346	93.2889	-4.03849	
255	2.125	112.755	67.1563	-16.7713	109.969	69.9182	-52.5084	111.715	78.7516	-79.5288	130.557	91.7014	-96.8432	123.835	131.046	-52.8359	121.897	148.231	-73.6239	124.253	167.476	-93.0877	144.091	118.584	-73.2262	143.253	93.6118	-92.0121	138.998	72.969	-63.9607	164.066	109.988	-70.0953	156.8	81.7517	-87.9076	147.557	66.2341	-62.7024	189.887	113.505	-53.8253	194.784	124.345	-72.9244	202.099	138.369	-87.3725	168.282	103.804	-15.3347	166.031	84.0774	11.6003	133.706	97.1284	-3.04293	
256	2.13333	112.095	74.8891	-16.3226	108.869	73.4998	-48.8364	111.073	84.6315	-74.4534	126.745	94.8024	-88.7445	122.386	137.345	-50.5877	118.201	152.211	-67.2917	121.118	170.473	-85.5981	143.309	124.267	-66.484	140.519	99.7272	-88.7354	133.709	77.7873	-58.8356	156.63	116.457	-70.8981	156.144	90.3195	-85.5388	144.383	70.5855	-61.2864	186.022	120.612	-53.0644	189.397	130.931	-71.449	199.644	143.501	-82.5022	163.111	107.693	-10.4548	163.22	90.2093	12.6805	135.731	100.63	3.79602	
257	2.14167	106.784	75.1599	-11.4713	107.132	76.7129	-44.5396	106.505	86.0452	-71.2655	125.23	100.705	-86.316	115.363	142.716	-45.5835	118.08	160.098	-65.6185	118.574	176.486	-79.7771	135.257	130.675	-63.9155	134.428	107.602	-85.0034	132.025	83.1244	-55.8531	153.893	122.915	-65.2581	150.067	97.0552	-82.7495	140.201	76.6295	-59.8789	181.58	123.32	-48.9566	187.091	133.313	-65.3429	197.93	151.374	-81.2696	162.354	112.035	-9.46146	162.614	92.8866	15.3361	132.007	102.665	6.57892	
258	2.15	106.613	77.6963	-9.02901	100.503	80.9918	-45.5916	104.546	91.4491	-69.4001	123.467	105.693	-85.9782	115.633	146.2	-38.1387	114.499	165.763	-58.6612	117.439	180.501	-71.8687	136	135.351	-58.7439	128.607	111.297	-81.2449	128.694	88.9939	-52.1321	155.11	128.52	-63.5338	145.866	104.211	-80.8324	138.426	81.7686	-55.0004	175.939	125.774	-43.5352	186.838	139.28	-62.5178	192.35	157.564	-76.6562	158.693	115.359	-2.84799	163.069	94.4267	16.3373	127.545	107.799	10.1095	
259	2.15833	103.762	82.3217	-6.87171	102.764	85.1744	-41.7352	104.402	96.1741	-66.1459	120.259	108.469	-82.2706	109.78	152.505	-34.3457	108.994	169.399	-52.0805	110.83	189.686	-66.394	133.168	141.186	-57.3588	124.738	119.925	-77.1018	128.236	93.7191	-52.9327	148.68	134.896	-55.1443	145.089	114.474	-77.1732	133.635	89.089	-57.3244	177.22	133.402	-41.34	182.744	146.583	-60.0238	190.263	161.752	-69.7654	159.208	120.126	-1.55201	161.756	93.9417	20.2083	124.102	107.656	14.1584	
260	2.16667	102.096	82.8916	-4.91162	100.643	85.0609	-38.1045	101.198	98.6872	-65.6228	119.109	114.209	-82.8251	112.551	155.767	-31.1065	111.359	171.609	-46.0269	110.402	193.32	-61.2251	130.668	144.44	-48.5098	125.135	125.93	-75.161	123.319	97.7519	-50.3106	146.927	137.899	-53.5828	139.323	117.224	-75.1523	131.644	91.1206	-54.2221	175.839	136.648	-39.5407	181.184	147.102	-55.0746	190.221	163.7	-67.1921	158.089	117.389	1.78072	158.481	95.5904	21.9066	126.71	113.092	14.6525	
261	2.175	104.395	85.3995	-2.58588	100.569	90.8431	-39.581	104.618	105.282	-64.9572	124.422	117.542	-75.8888	111.04	156.556	-26.8363	105.914	173.504	-40.7844	110.911	194.076	-55.8279	127.698	148.618	-48.572	125.6	127.911	-72.0336	120.577	100.024	-45.9957	147.342	140.714	-53.0932	141.372	120.825	-73.6819	129.175	93.7218	-51.6521	172.439	134.458	-35.7061	181.599	149.045	-52.9823	187.757	169.619	-66.3211	157.664	121.023	2.6335	155.919	96.9071	22.4511	125.959	111.371	16.9107	
262	2.18333	102.358	89.7902	-4.42424	99.3714	88.9107	-37.981	100.384	103.614	-64.3895	122.156	118.308	-77.458	110.397	160.719	-26.6779	110.62	176.153	-41.358	112.648	197.012	-53.2043	131.099	149.06	-47.687	123.943	128.153	-71.3354	121.883	102.642	-47.386	147.746	141.458	-49.5915	136.772	121.1	-71.6924	130.676	93.7849	-50.9943	173.522	137.298	-36.8877	179.947	150.161	-51.4498	189.618	166.073	-62.9104	160.302	118.447	3.97048	159.636	98.6593	23.704	127.592	115.854	17.2561	
263	2.19167	103.042	91.8953	-5.23864	99.5229	92.7149	-38.9302	104.787	108.129	-65.7584	123.62	119.449	-78.2458	111.15	161.501	-25.8154	107.4	178.902	-40.6188	111.165	195.422	-51.5005	131.905	149.337	-45.6051	124.19	132.589	-70.8756	118.02	102.967	-47.3255	147.397	142.054	-50.9504	139.879	119.998	-73.1747	131.743	94.4753	-52.7924	174.984	135.804	-36.2174	180.586	149.699	-53.2676	189.573	167.458	-61.5229	158.597	119.837	3.80916	159.118	97.9783	23.8456	127.313	112.367	17.5684	
